<?xml version="1.0" standalone="no"?>
<!DOCTYPE svg PUBLIC "-//W3C//DTD SVG 20010904//EN"
 "http://www.w3.org/TR/2001/REC-SVG-20010904/DTD/svg10.dtd">
<svg version="1.0" xmlns="http://www.w3.org/2000/svg"
 width="700.000000pt" height="700.000000pt" viewBox="0 0 700.000000 700.000000"
 preserveAspectRatio="xMidYMid meet">
<metadata>
Created by potrace 1.11, written by Peter Selinger 2001-2013
</metadata>
<g transform="translate(0.000000,700.000000) scale(0.100000,-0.100000)"
fill="#000000" stroke="none">
<path d="M4035 5268 c-16 -5 -39 -13 -50 -18 -11 -4 -65 -25 -120 -45 -114
-42 -205 -85 -205 -96 0 -4 -15 -11 -32 -14 -66 -15 -129 -57 -215 -144 -204
-205 -313 -290 -768 -596 -170 -114 -336 -232 -367 -263 -81 -79 -120 -160
-121 -254 -1 -62 3 -83 29 -139 38 -79 113 -158 209 -220 91 -58 125 -72 183
-72 82 0 143 37 232 139 89 101 49 94 504 94 386 0 399 -1 383 -18 -10 -10
-17 -25 -17 -32 0 -11 -236 -333 -274 -374 -15 -15 -69 -85 -194 -251 -58 -77
-126 -163 -152 -192 -25 -29 -60 -81 -77 -115 -41 -82 -51 -140 -44 -256 l1
-22 748 2 749 3 56 48 55 47 47 148 c26 81 52 163 58 182 6 19 12 37 12 40 1
3 20 64 42 135 72 226 93 296 104 344 6 25 13 55 16 66 44 182 50 475 14 649
-30 142 -67 241 -151 401 -76 146 -101 217 -104 308 -2 63 13 157 34 212 7 17
12 59 12 95 1 62 -9 181 -16 187 -5 5 -90 5 -112 0 -76 -18 -158 -84 -245
-199 l-59 -77 -33 14 c-17 8 -49 22 -70 32 l-38 19 22 20 c11 10 30 36 41 58
21 42 19 86 -8 138 -15 30 -30 33 -79 16z"/>
<path d="M4756 4928 c-59 -174 -57 -184 75 -446 71 -140 148 -346 165 -442 3
-19 7 -91 9 -160 5 -181 -26 -349 -154 -826 -17 -61 -32 -121 -35 -135 -10
-47 -14 -65 -30 -119 -8 -30 -17 -66 -20 -80 -8 -39 -12 -57 -45 -185 l-32
-119 35 -35 35 -35 94 28 c137 41 197 73 223 121 50 92 184 474 214 610 7 28
13 57 15 65 48 198 64 352 60 600 -1 118 -5 226 -8 240 -3 14 -8 52 -12 85
-22 209 -129 476 -273 685 -119 173 -165 223 -220 243 -27 9 -51 17 -54 17 -2
0 -21 -50 -42 -112z"/>
<path d="M3157 2204 c-1 -1 -26 -5 -55 -8 -285 -34 -537 -287 -608 -610 -3
-12 -6 -58 -8 -103 l-3 -83 1262 0 1263 0 13 53 c7 28 13 88 13 132 0 67 -5
89 -28 134 -31 62 -70 110 -130 158 -69 57 -97 85 -152 160 -75 100 -138 139
-254 159 -36 6 -1306 14 -1313 8z"/>
</g>
</svg>
