<?xml version="1.0" encoding="utf-8"?>

<svg version="1.1" id="Слой_1" xmlns="http://www.w3.org/2000/svg" xmlns:xlink="http://www.w3.org/1999/xlink" x="0px" y="0px"
	 viewBox="0 0 20 20" style="enable-background:new 0 0 20 20;" xml:space="preserve">
<style type="text/css">
	.st0{fill:#161616;}
</style>
	<path class="st0" d="M15.8,7.9c-1.4,0.7-1.3,2.4-1.9,3.6c-0.1,0.1-0.1,0.2-0.1,0.4c-0.1,0.5-0.4,0.7-1,0.7c-1.4,0-2.9,0-4.3,0
	c-0.4,0-0.6-0.1-0.8-0.5c-0.4-1-0.8-2-1.3-3C6.3,8.7,6.2,8.4,5.8,8.3C5.3,8.2,5.1,7.6,5.2,7.1c0.1-0.4,0.6-0.7,1.1-0.6
	S7.1,6.9,7,7.4c0,0.5,0.2,0.7,0.5,1C7.8,8.6,8,8.9,8.3,9.1l0,0c0.1,0.1,0.3,0,0.3-0.1c0-0.8,0.1-1.5,0.1-2.2c0-0.2-0.1-0.3-0.3-0.5
	C8.1,5.9,8.1,5.4,8.4,5c0.3-0.4,0.9-0.4,1.2-0.2c0.4,0.3,0.5,0.9,0.2,1.4c0,0.1-0.1,0.3,0,0.5c0.2,0.6,0.5,1.3,0.7,2
	c0.1,0.2,0.3,0.2,0.3,0c0.3-0.8,0.6-1.5,0.8-2.2c0-0.1,0-0.1,0-0.2c-0.3-0.3-0.4-0.7-0.2-1.2c0.2-0.4,0.6-0.6,1-0.4
	C12.7,4.8,13,5,13.1,5.2c0.2,0.3,0.1,0.8-0.1,1c-0.4,0.3-0.4,0.7-0.4,1.2s0.1,1.1,0.1,1.7c0,0.2,0.2,0.2,0.3,0.1
	c0.4-0.4,0.8-0.8,1.2-1.1c0.1-0.1,0.1-0.3,0-0.4c-0.1-0.5,0.2-0.8,0.6-0.9c0.4-0.2,0.8-0.4,1.1,0L16,6.9c0.1,0.1,0.1,0.4,0.1,0.5
	L16,7.6C15.9,7.8,15.9,7.8,15.8,7.9z"/>
<path class="st0" d="M6.6,15c-0.3-1.1,0.7-1.6,1.3-2.2c0.1-0.1,0.3-0.1,0.4-0.1c1.6,0,3.2,0,4.9,0c0.2,0,0.5,0.1,0.6,0.3
	c0.6,0.6,1.3,1,1.1,2H6.6z"/>
</svg>
