<?xml version="1.0" encoding="utf-8"?>

<svg version="1.1" id="Слой_1" xmlns="http://www.w3.org/2000/svg" xmlns:xlink="http://www.w3.org/1999/xlink" x="0px" y="0px"
	 viewBox="0 0 20 20" style="enable-background:new 0 0 20 20;" xml:space="preserve">
	<style type="text/css">
	.st0{fill:#161616;}
	</style>
<path class="st0" d="M6.9,13.6c0.1,0,0.1-0.1,0.2-0.1c0.7-1,1.6-1.3,2.8-1.1c0.5,0.1,1,0.1,1.5,0c0.8-0.1,1.4,0.2,1.9,0.8
	c0.4,0.4,0.7,0.9,0.4,1.5c-2.2,0-4.5,0-6.8,0C6.9,14.3,6.9,14,6.9,13.6z"/>
<path class="st0" d="M12.5,8.3c-1.5,0-2.8,0-4.1,0C8.1,7.6,8.7,7.7,9,7.4c-0.7-0.5-0.9-1.3-0.7-2c0.1-0.5,0.5-0.9,0.8-1.2
	c0.6-0.6,1.9-0.5,2.6,0.1c1,0.9,1,1.9,0,3.2c0.2,0.1,0.4,0.2,0.5,0.3C12.3,7.8,12.4,8,12.5,8.3z"/>
<path class="st0" d="M8.5,11.9c0.2-1,0.5-2,0.7-3.1c0.7,0,1.4,0,2.1,0c0.2,1,0.5,2,0.7,3.1C10.9,11.9,9.8,11.9,8.5,11.9z"/>
</svg>
