<?xml version="1.0" encoding="utf-8"?>

<svg version="1.1" id="Слой_1" xmlns="http://www.w3.org/2000/svg" xmlns:xlink="http://www.w3.org/1999/xlink" x="0px" y="0px"
	 viewBox="0 0 20 20" style="enable-background:new 0 0 20 20;" xml:space="preserve">
	<style type="text/css">
	.st0{fill:#BB894E;}
</style>

	<style type="text/css">
	.st0{fill:#BB894E;}
</style>
	<path class="st0" d="M5.4,15c-0.3-1.1,0.7-1.6,1.3-2.2c0.1-0.1,0.3-0.1,0.4-0.1c1.6,0,3.2,0,4.9,0c0.2,0,0.5,0.1,0.6,0.3c0.6,0.6,1.3,1,1.1,2
	H5.4z"/>
<path class="st0" d="M9.6,6.8c0.7-1,1.5-1.5,2.7-1.4c1.2,0.1,2.3,1.2,2.4,2.4c0.1,1-0.3,1.8-1,2.5c-0.6,0.6-1.3,1.1-1.3,2H6.8
	c0-0.9-0.7-1.4-1.3-2c-0.7-0.7-1.1-1.6-1-2.7c0.1-1,1.1-2,2.1-2.1C8,5.3,8.9,5.8,9.6,6.8z M8.4,10.4c0.1-0.1,0.1-0.1,0.1-0.1
	c0-0.8-0.3-1.5-0.8-2.1c0,0-0.3,0-0.3,0c-0.1,0.1-0.1,0.3,0,0.4C7.6,9,7.8,9.2,8,9.6C8.1,9.8,8.3,10.1,8.4,10.4z M10.6,10.4
	c0.1,0,0.1,0.1,0.2,0.1c0-0.1,0.1-0.1,0.1-0.2c0.3-0.6,0.6-1.1,0.9-1.7c0-0.1,0-0.2-0.1-0.4c-0.1,0-0.3,0-0.4,0.1
	c-0.3,0.5-0.5,1-0.7,1.5C10.5,10,10.6,10.2,10.6,10.4z"/>
<path class="st0" d="M8.5,4c0.2-0.3,0.4-0.7,0.6-0.8c0.3-0.1,0.7,0,1,0.1c0.4,0.2,0.4,0.7,0.3,1.1c-0.1,0.5-0.4,1-0.6,1.5
	C9.7,6.1,9.5,6.2,9.3,5.9C9,5.3,8.8,4.7,8.5,4z"/>
</svg>
