<?xml version="1.0" encoding="utf-8"?>
<!-- Generator: Adobe Illustrator 21.1.0, SVG Export Plug-In . SVG Version: 6.00 Build 0)  -->
<svg version="1.1" id="Слой_1" xmlns="http://www.w3.org/2000/svg" xmlns:xlink="http://www.w3.org/1999/xlink" x="0px" y="0px"
	 viewBox="0 0 20 20" style="enable-background:new 0 0 20 20;" xml:space="preserve">

	<style type="text/css">
	.st0{fill:#BB894E;}
</style>
	<path class="st0" d="M6.2,4.3c0.3,0,0.6,0,0.8,0c0.3,0,0.6,0,0.6,0.5C7.7,5,8,5.2,8.2,5.2c0.4,0.1,0.5-0.2,0.6-0.5c0-0.4,0.2-0.4,0.6-0.4
	c0.5,0,1.1-0.1,1.2,0.7c0,0.3,0.8,0.3,0.9,0c0.2-1.1,1-0.6,1.6-0.7c0,0.6,0.1,1.2,0,1.7c-0.1,0.3-0.4,0.5-0.6,0.8
	c-0.4,0.6-1,0.8-1.7,0.7c-0.9-0.1-1.9,0-2.8,0c-0.3,0-0.5-0.2-0.8-0.3C6.1,6.6,6,5.5,6.2,4.3z"/>
<path class="st0" d="M7.5,12c0-1.4,0-2.7,0-4c1.3,0,2.6,0,4,0c0,1.3,0,2.6,0,4C10.2,12,8.9,12,7.5,12z"/>
<path class="st0" d="M12.9,14.9H6.2c-0.2-0.6,0-1,0.4-1.5c0.6-0.6,1.1-0.9,2-0.8c0.9,0.1,1.7,0,2.6,0c0.4,0,0.7,0.1,0.9,0.4
	c0.1,0.1,0.2,0.3,0.4,0.4C12.9,13.7,13.2,14.2,12.9,14.9z"/>
</svg>
