<?xml version="1.0" encoding="utf-8"?>
<!-- Generator: Adobe Illustrator 21.1.0, SVG Export Plug-In . SVG Version: 6.00 Build 0)  -->
<svg version="1.1" id="Слой_1" xmlns="http://www.w3.org/2000/svg" xmlns:xlink="http://www.w3.org/1999/xlink" x="0px" y="0px"
	 viewBox="0 0 20 20" style="enable-background:new 0 0 20 20;" xml:space="preserve">

	<style type="text/css">
	.st0{fill:#BB894E;}
</style>
	<path class="st0" d="M6,15c0.1,0,0.1-0.1,0.2-0.1c0.7-1,1.7-1.3,2.8-1.1c0.5,0.1,1.1,0.1,1.6,0c0.6-0.1,1.1,0.2,1.5,0.6c0.5,0.5,0.8,1,0.7,1.7
	c-2.3,0-4.6,0-6.9,0C6,15.7,6,15.3,6,15z"/>
<path class="st0" d="M9.4,10.4c0.2-0.2,0.2-0.3,0.2-0.3c-0.1-1.2,0.7-2,1-3.1c0-0.1,0.3-0.2,0.4-0.2c0.9,0.5,1.5,1.3,1.6,2.4
	c0.1,1.4-0.6,2.6-1.1,3.9c0,0.1-0.3,0.2-0.4,0.2c-1.1,0-2.3,0-3.4,0c-0.2,0-0.4-0.1-0.5-0.3c-0.3-0.9-0.7-1.7-0.9-2.6
	C5.9,8.8,6.5,7.4,8,6.7c0.4-0.2,0.6-0.4,0.5-0.8c0-0.6,0.4-0.9,1-0.9c0.5,0,0.8,0.4,0.9,0.9c0.1,0.9-0.5,1.7-0.7,2.5
	C9.5,8.9,9.3,9.4,9.2,9.8C9.2,10,9.3,10.1,9.4,10.4z"/>
</svg>
